<svg width="462" height="463" viewBox="0 0 462 463" fill="none" xmlns="http://www.w3.org/2000/svg">
<path d="M230.8 462.3C358.212 462.3 461.5 359.012 461.5 231.6C461.5 104.188 358.212 0.900024 230.8 0.900024C103.388 0.900024 0.0999756 104.188 0.0999756 231.6C0.0999756 359.012 103.388 462.3 230.8 462.3Z" fill="#131415"/>
<path fill-rule="evenodd" clip-rule="evenodd" d="M290.633 256.133L325.433 290.833L230.833 385.333L136.333 290.833L171.133 256.133L230.833 315.833L290.633 256.133ZM230.833 196.333L266.133 231.633L230.833 266.933L195.633 231.733V231.633L201.833 225.433L204.833 222.433L230.833 196.333ZM111.833 196.833L146.633 231.633L111.833 266.333L77.0333 231.533L111.833 196.833ZM349.833 196.833L384.633 231.633L349.833 266.333L315.033 231.533L349.833 196.833ZM230.833 77.8334L325.333 172.333L290.533 207.133L230.833 147.333L171.133 207.033L136.333 172.333L230.833 77.8334Z" fill="#F3BA2F"/>
</svg>
